<mxfile host="app.diagrams.net" modified="2023-09-18T08:25:55.280Z" agent="Mozilla/5.0 (X11; Linux x86_64) AppleWebKit/537.36 (KHTML, like Gecko) Chrome/114.0.0.0 YaBrowser/23.7.5.685 (beta) Yowser/2.5 Safari/537.36" etag="oH4w9pcVQz9M7vYFRdBk" version="21.7.4" type="device">
  <diagram id="R2lEEEUBdFMjLlhIrx00" name="Page-1">
    <mxGraphModel dx="2876" dy="2267" grid="1" gridSize="10" guides="1" tooltips="1" connect="1" arrows="1" fold="1" page="1" pageScale="1" pageWidth="850" pageHeight="1100" math="0" shadow="0" extFonts="Permanent Marker^https://fonts.googleapis.com/css?family=Permanent+Marker">
      <root>
        <mxCell id="0" />
        <mxCell id="1" parent="0" />
        <mxCell id="NZUyc3dxwzERvjgSjI8_-11" value="TMainRegistry" style="ellipse;whiteSpace=wrap;html=1;" vertex="1" parent="1">
          <mxGeometry x="350" y="50" width="220" height="120" as="geometry" />
        </mxCell>
        <mxCell id="NZUyc3dxwzERvjgSjI8_-12" value="TAggregator_1" style="rounded=0;whiteSpace=wrap;html=1;" vertex="1" parent="1">
          <mxGeometry x="-80" y="200" width="120" height="60" as="geometry" />
        </mxCell>
        <mxCell id="NZUyc3dxwzERvjgSjI8_-13" value="TAggregator_2" style="rounded=0;whiteSpace=wrap;html=1;" vertex="1" parent="1">
          <mxGeometry x="160" y="200" width="120" height="60" as="geometry" />
        </mxCell>
        <mxCell id="NZUyc3dxwzERvjgSjI8_-14" value="TAggregator_3" style="rounded=0;whiteSpace=wrap;html=1;" vertex="1" parent="1">
          <mxGeometry x="400" y="200" width="120" height="60" as="geometry" />
        </mxCell>
        <mxCell id="NZUyc3dxwzERvjgSjI8_-15" value="TAggregator_4" style="rounded=0;whiteSpace=wrap;html=1;" vertex="1" parent="1">
          <mxGeometry x="640" y="200" width="120" height="60" as="geometry" />
        </mxCell>
        <mxCell id="NZUyc3dxwzERvjgSjI8_-16" value="TAggregator_5" style="rounded=0;whiteSpace=wrap;html=1;" vertex="1" parent="1">
          <mxGeometry x="880" y="200" width="120" height="60" as="geometry" />
        </mxCell>
        <mxCell id="NZUyc3dxwzERvjgSjI8_-17" value="" style="endArrow=none;html=1;rounded=0;" edge="1" parent="1" source="NZUyc3dxwzERvjgSjI8_-12" target="NZUyc3dxwzERvjgSjI8_-11">
          <mxGeometry width="50" height="50" relative="1" as="geometry">
            <mxPoint x="400" y="500" as="sourcePoint" />
            <mxPoint x="450" y="450" as="targetPoint" />
          </mxGeometry>
        </mxCell>
        <mxCell id="NZUyc3dxwzERvjgSjI8_-18" value="" style="endArrow=none;html=1;rounded=0;" edge="1" parent="1" source="NZUyc3dxwzERvjgSjI8_-13" target="NZUyc3dxwzERvjgSjI8_-11">
          <mxGeometry width="50" height="50" relative="1" as="geometry">
            <mxPoint x="410" y="510" as="sourcePoint" />
            <mxPoint x="460" y="460" as="targetPoint" />
          </mxGeometry>
        </mxCell>
        <mxCell id="NZUyc3dxwzERvjgSjI8_-19" value="" style="endArrow=none;html=1;rounded=0;" edge="1" parent="1" source="NZUyc3dxwzERvjgSjI8_-14" target="NZUyc3dxwzERvjgSjI8_-11">
          <mxGeometry width="50" height="50" relative="1" as="geometry">
            <mxPoint x="420" y="520" as="sourcePoint" />
            <mxPoint x="470" y="470" as="targetPoint" />
          </mxGeometry>
        </mxCell>
        <mxCell id="NZUyc3dxwzERvjgSjI8_-20" value="" style="endArrow=none;html=1;rounded=0;" edge="1" parent="1" source="NZUyc3dxwzERvjgSjI8_-15" target="NZUyc3dxwzERvjgSjI8_-11">
          <mxGeometry width="50" height="50" relative="1" as="geometry">
            <mxPoint x="430" y="530" as="sourcePoint" />
            <mxPoint x="480" y="480" as="targetPoint" />
          </mxGeometry>
        </mxCell>
        <mxCell id="NZUyc3dxwzERvjgSjI8_-21" value="" style="endArrow=none;html=1;rounded=0;" edge="1" parent="1" source="NZUyc3dxwzERvjgSjI8_-16" target="NZUyc3dxwzERvjgSjI8_-11">
          <mxGeometry width="50" height="50" relative="1" as="geometry">
            <mxPoint x="440" y="540" as="sourcePoint" />
            <mxPoint x="490" y="490" as="targetPoint" />
          </mxGeometry>
        </mxCell>
        <mxCell id="NZUyc3dxwzERvjgSjI8_-22" value="IMetric_2" style="rhombus;whiteSpace=wrap;html=1;" vertex="1" parent="1">
          <mxGeometry y="400" width="80" height="80" as="geometry" />
        </mxCell>
        <mxCell id="NZUyc3dxwzERvjgSjI8_-23" value="IMetric_3" style="rhombus;whiteSpace=wrap;html=1;" vertex="1" parent="1">
          <mxGeometry x="120" y="400" width="80" height="80" as="geometry" />
        </mxCell>
        <mxCell id="NZUyc3dxwzERvjgSjI8_-24" value="IMetric_5" style="rhombus;whiteSpace=wrap;html=1;" vertex="1" parent="1">
          <mxGeometry x="360" y="400" width="80" height="80" as="geometry" />
        </mxCell>
        <mxCell id="NZUyc3dxwzERvjgSjI8_-25" value="IMetric_7" style="rhombus;whiteSpace=wrap;html=1;" vertex="1" parent="1">
          <mxGeometry x="600" y="400" width="80" height="80" as="geometry" />
        </mxCell>
        <mxCell id="NZUyc3dxwzERvjgSjI8_-26" value="IMetric_8" style="rhombus;whiteSpace=wrap;html=1;" vertex="1" parent="1">
          <mxGeometry x="720" y="400" width="80" height="80" as="geometry" />
        </mxCell>
        <mxCell id="NZUyc3dxwzERvjgSjI8_-27" value="IMetric_9" style="rhombus;whiteSpace=wrap;html=1;" vertex="1" parent="1">
          <mxGeometry x="840" y="400" width="80" height="80" as="geometry" />
        </mxCell>
        <mxCell id="NZUyc3dxwzERvjgSjI8_-28" value="IMetric_10" style="rhombus;whiteSpace=wrap;html=1;" vertex="1" parent="1">
          <mxGeometry x="960" y="400" width="80" height="80" as="geometry" />
        </mxCell>
        <mxCell id="NZUyc3dxwzERvjgSjI8_-29" value="IMetric_6" style="rhombus;whiteSpace=wrap;html=1;" vertex="1" parent="1">
          <mxGeometry x="480" y="400" width="80" height="80" as="geometry" />
        </mxCell>
        <mxCell id="NZUyc3dxwzERvjgSjI8_-30" value="IMetric_1" style="rhombus;whiteSpace=wrap;html=1;" vertex="1" parent="1">
          <mxGeometry x="-120" y="400" width="80" height="80" as="geometry" />
        </mxCell>
        <mxCell id="NZUyc3dxwzERvjgSjI8_-31" value="IMetric_4" style="rhombus;whiteSpace=wrap;html=1;" vertex="1" parent="1">
          <mxGeometry x="240" y="400" width="80" height="80" as="geometry" />
        </mxCell>
        <mxCell id="NZUyc3dxwzERvjgSjI8_-32" value="" style="endArrow=none;html=1;rounded=0;" edge="1" parent="1" source="NZUyc3dxwzERvjgSjI8_-30" target="NZUyc3dxwzERvjgSjI8_-12">
          <mxGeometry width="50" height="50" relative="1" as="geometry">
            <mxPoint x="660" y="510" as="sourcePoint" />
            <mxPoint x="250" y="440" as="targetPoint" />
          </mxGeometry>
        </mxCell>
        <mxCell id="NZUyc3dxwzERvjgSjI8_-33" value="" style="endArrow=none;html=1;rounded=0;" edge="1" parent="1" source="NZUyc3dxwzERvjgSjI8_-30" target="NZUyc3dxwzERvjgSjI8_-13">
          <mxGeometry width="50" height="50" relative="1" as="geometry">
            <mxPoint x="670" y="520" as="sourcePoint" />
            <mxPoint x="260" y="450" as="targetPoint" />
          </mxGeometry>
        </mxCell>
        <mxCell id="NZUyc3dxwzERvjgSjI8_-34" value="" style="endArrow=none;html=1;rounded=0;" edge="1" parent="1" source="NZUyc3dxwzERvjgSjI8_-22" target="NZUyc3dxwzERvjgSjI8_-12">
          <mxGeometry width="50" height="50" relative="1" as="geometry">
            <mxPoint x="680" y="530" as="sourcePoint" />
            <mxPoint x="270" y="460" as="targetPoint" />
          </mxGeometry>
        </mxCell>
        <mxCell id="NZUyc3dxwzERvjgSjI8_-35" value="" style="endArrow=none;html=1;rounded=0;" edge="1" parent="1" source="NZUyc3dxwzERvjgSjI8_-22" target="NZUyc3dxwzERvjgSjI8_-13">
          <mxGeometry width="50" height="50" relative="1" as="geometry">
            <mxPoint x="690" y="540" as="sourcePoint" />
            <mxPoint x="280" y="470" as="targetPoint" />
          </mxGeometry>
        </mxCell>
        <mxCell id="NZUyc3dxwzERvjgSjI8_-36" value="" style="endArrow=none;html=1;rounded=0;" edge="1" parent="1" source="NZUyc3dxwzERvjgSjI8_-22" target="NZUyc3dxwzERvjgSjI8_-14">
          <mxGeometry width="50" height="50" relative="1" as="geometry">
            <mxPoint x="700" y="550" as="sourcePoint" />
            <mxPoint x="290" y="480" as="targetPoint" />
          </mxGeometry>
        </mxCell>
        <mxCell id="NZUyc3dxwzERvjgSjI8_-37" value="" style="endArrow=none;html=1;rounded=0;" edge="1" parent="1" source="NZUyc3dxwzERvjgSjI8_-23" target="NZUyc3dxwzERvjgSjI8_-14">
          <mxGeometry width="50" height="50" relative="1" as="geometry">
            <mxPoint x="740" y="880" as="sourcePoint" />
            <mxPoint x="330" y="810" as="targetPoint" />
          </mxGeometry>
        </mxCell>
        <mxCell id="NZUyc3dxwzERvjgSjI8_-38" value="" style="endArrow=none;html=1;rounded=0;" edge="1" parent="1" source="NZUyc3dxwzERvjgSjI8_-31" target="NZUyc3dxwzERvjgSjI8_-14">
          <mxGeometry width="50" height="50" relative="1" as="geometry">
            <mxPoint x="750" y="890" as="sourcePoint" />
            <mxPoint x="340" y="820" as="targetPoint" />
          </mxGeometry>
        </mxCell>
        <mxCell id="NZUyc3dxwzERvjgSjI8_-39" value="" style="endArrow=none;html=1;rounded=0;" edge="1" parent="1" source="NZUyc3dxwzERvjgSjI8_-24" target="NZUyc3dxwzERvjgSjI8_-14">
          <mxGeometry width="50" height="50" relative="1" as="geometry">
            <mxPoint x="760" y="890" as="sourcePoint" />
            <mxPoint x="350" y="820" as="targetPoint" />
          </mxGeometry>
        </mxCell>
        <mxCell id="NZUyc3dxwzERvjgSjI8_-40" value="" style="endArrow=none;html=1;rounded=0;" edge="1" parent="1" source="NZUyc3dxwzERvjgSjI8_-29" target="NZUyc3dxwzERvjgSjI8_-14">
          <mxGeometry width="50" height="50" relative="1" as="geometry">
            <mxPoint x="770" y="910" as="sourcePoint" />
            <mxPoint x="360" y="840" as="targetPoint" />
          </mxGeometry>
        </mxCell>
        <mxCell id="NZUyc3dxwzERvjgSjI8_-41" value="" style="endArrow=none;html=1;rounded=0;" edge="1" parent="1" source="NZUyc3dxwzERvjgSjI8_-28" target="NZUyc3dxwzERvjgSjI8_-16">
          <mxGeometry width="50" height="50" relative="1" as="geometry">
            <mxPoint x="780" y="920" as="sourcePoint" />
            <mxPoint x="370" y="850" as="targetPoint" />
          </mxGeometry>
        </mxCell>
        <mxCell id="NZUyc3dxwzERvjgSjI8_-42" value="" style="endArrow=none;html=1;rounded=0;" edge="1" parent="1" source="NZUyc3dxwzERvjgSjI8_-23" target="NZUyc3dxwzERvjgSjI8_-12">
          <mxGeometry width="50" height="50" relative="1" as="geometry">
            <mxPoint x="750" y="890" as="sourcePoint" />
            <mxPoint x="340" y="820" as="targetPoint" />
          </mxGeometry>
        </mxCell>
        <mxCell id="NZUyc3dxwzERvjgSjI8_-43" value="" style="endArrow=none;html=1;rounded=0;" edge="1" parent="1" source="NZUyc3dxwzERvjgSjI8_-27" target="NZUyc3dxwzERvjgSjI8_-16">
          <mxGeometry width="50" height="50" relative="1" as="geometry">
            <mxPoint x="790" y="930" as="sourcePoint" />
            <mxPoint x="380" y="860" as="targetPoint" />
          </mxGeometry>
        </mxCell>
        <mxCell id="NZUyc3dxwzERvjgSjI8_-44" value="" style="endArrow=none;html=1;rounded=0;" edge="1" parent="1" source="NZUyc3dxwzERvjgSjI8_-27" target="NZUyc3dxwzERvjgSjI8_-15">
          <mxGeometry width="50" height="50" relative="1" as="geometry">
            <mxPoint x="800" y="940" as="sourcePoint" />
            <mxPoint x="390" y="870" as="targetPoint" />
          </mxGeometry>
        </mxCell>
        <mxCell id="NZUyc3dxwzERvjgSjI8_-45" value="" style="endArrow=none;html=1;rounded=0;" edge="1" parent="1" source="NZUyc3dxwzERvjgSjI8_-26" target="NZUyc3dxwzERvjgSjI8_-15">
          <mxGeometry width="50" height="50" relative="1" as="geometry">
            <mxPoint x="810" y="950" as="sourcePoint" />
            <mxPoint x="400" y="880" as="targetPoint" />
          </mxGeometry>
        </mxCell>
        <mxCell id="NZUyc3dxwzERvjgSjI8_-46" value="" style="endArrow=none;html=1;rounded=0;" edge="1" parent="1" source="NZUyc3dxwzERvjgSjI8_-25" target="NZUyc3dxwzERvjgSjI8_-15">
          <mxGeometry width="50" height="50" relative="1" as="geometry">
            <mxPoint x="820" y="960" as="sourcePoint" />
            <mxPoint x="410" y="890" as="targetPoint" />
          </mxGeometry>
        </mxCell>
        <mxCell id="NZUyc3dxwzERvjgSjI8_-47" value="" style="endArrow=none;html=1;rounded=0;" edge="1" parent="1" source="NZUyc3dxwzERvjgSjI8_-25" target="NZUyc3dxwzERvjgSjI8_-14">
          <mxGeometry width="50" height="50" relative="1" as="geometry">
            <mxPoint x="830" y="970" as="sourcePoint" />
            <mxPoint x="420" y="900" as="targetPoint" />
          </mxGeometry>
        </mxCell>
        <mxCell id="NZUyc3dxwzERvjgSjI8_-51" value="AggregatorStorageOrder" style="rounded=1;whiteSpace=wrap;html=1;verticalAlign=bottom;" vertex="1" parent="1">
          <mxGeometry x="-120" y="640" width="1160" height="110" as="geometry" />
        </mxCell>
        <mxCell id="NZUyc3dxwzERvjgSjI8_-52" value="" style="endArrow=classic;html=1;rounded=0;dashed=1;" edge="1" parent="1" source="NZUyc3dxwzERvjgSjI8_-28" target="NZUyc3dxwzERvjgSjI8_-63">
          <mxGeometry width="50" height="50" relative="1" as="geometry">
            <mxPoint x="-150" y="590" as="sourcePoint" />
            <mxPoint x="-80" y="640" as="targetPoint" />
          </mxGeometry>
        </mxCell>
        <mxCell id="NZUyc3dxwzERvjgSjI8_-53" value="" style="endArrow=classic;html=1;rounded=0;dashed=1;" edge="1" parent="1" source="NZUyc3dxwzERvjgSjI8_-27" target="NZUyc3dxwzERvjgSjI8_-67">
          <mxGeometry width="50" height="50" relative="1" as="geometry">
            <mxPoint x="976" y="456" as="sourcePoint" />
            <mxPoint x="210" y="900" as="targetPoint" />
          </mxGeometry>
        </mxCell>
        <mxCell id="NZUyc3dxwzERvjgSjI8_-54" value="" style="endArrow=classic;html=1;rounded=0;dashed=1;" edge="1" parent="1" source="NZUyc3dxwzERvjgSjI8_-26" target="NZUyc3dxwzERvjgSjI8_-66">
          <mxGeometry width="50" height="50" relative="1" as="geometry">
            <mxPoint x="866" y="466" as="sourcePoint" />
            <mxPoint x="220" y="910" as="targetPoint" />
          </mxGeometry>
        </mxCell>
        <mxCell id="NZUyc3dxwzERvjgSjI8_-55" value="" style="endArrow=classic;html=1;rounded=0;dashed=1;" edge="1" parent="1" source="NZUyc3dxwzERvjgSjI8_-31" target="NZUyc3dxwzERvjgSjI8_-70">
          <mxGeometry width="50" height="50" relative="1" as="geometry">
            <mxPoint x="876" y="476" as="sourcePoint" />
            <mxPoint x="230" y="920" as="targetPoint" />
          </mxGeometry>
        </mxCell>
        <mxCell id="NZUyc3dxwzERvjgSjI8_-56" value="" style="endArrow=classic;html=1;rounded=0;dashed=1;" edge="1" parent="1" source="NZUyc3dxwzERvjgSjI8_-29" target="NZUyc3dxwzERvjgSjI8_-68">
          <mxGeometry width="50" height="50" relative="1" as="geometry">
            <mxPoint x="886" y="486" as="sourcePoint" />
            <mxPoint x="240" y="930" as="targetPoint" />
          </mxGeometry>
        </mxCell>
        <mxCell id="NZUyc3dxwzERvjgSjI8_-57" value="" style="endArrow=classic;html=1;rounded=0;dashed=1;" edge="1" parent="1" source="NZUyc3dxwzERvjgSjI8_-24" target="NZUyc3dxwzERvjgSjI8_-69">
          <mxGeometry width="50" height="50" relative="1" as="geometry">
            <mxPoint x="896" y="496" as="sourcePoint" />
            <mxPoint x="250" y="940" as="targetPoint" />
          </mxGeometry>
        </mxCell>
        <mxCell id="NZUyc3dxwzERvjgSjI8_-59" value="" style="endArrow=classic;html=1;rounded=0;dashed=1;" edge="1" parent="1" source="NZUyc3dxwzERvjgSjI8_-23" target="NZUyc3dxwzERvjgSjI8_-71">
          <mxGeometry width="50" height="50" relative="1" as="geometry">
            <mxPoint x="916" y="516" as="sourcePoint" />
            <mxPoint x="270" y="960" as="targetPoint" />
          </mxGeometry>
        </mxCell>
        <mxCell id="NZUyc3dxwzERvjgSjI8_-61" value="" style="endArrow=classic;html=1;rounded=0;dashed=1;" edge="1" parent="1" source="NZUyc3dxwzERvjgSjI8_-22" target="NZUyc3dxwzERvjgSjI8_-72">
          <mxGeometry width="50" height="50" relative="1" as="geometry">
            <mxPoint x="936" y="536" as="sourcePoint" />
            <mxPoint x="290" y="980" as="targetPoint" />
          </mxGeometry>
        </mxCell>
        <mxCell id="NZUyc3dxwzERvjgSjI8_-62" value="" style="endArrow=classic;html=1;rounded=0;dashed=1;" edge="1" parent="1" source="NZUyc3dxwzERvjgSjI8_-30" target="NZUyc3dxwzERvjgSjI8_-73">
          <mxGeometry width="50" height="50" relative="1" as="geometry">
            <mxPoint x="946" y="546" as="sourcePoint" />
            <mxPoint x="300" y="990" as="targetPoint" />
          </mxGeometry>
        </mxCell>
        <mxCell id="NZUyc3dxwzERvjgSjI8_-63" value="IMetric_10" style="rhombus;whiteSpace=wrap;html=1;dashed=1;" vertex="1" parent="1">
          <mxGeometry x="-110" y="655" width="80" height="80" as="geometry" />
        </mxCell>
        <mxCell id="NZUyc3dxwzERvjgSjI8_-66" value="IMetric_8" style="rhombus;whiteSpace=wrap;html=1;dashed=1;" vertex="1" parent="1">
          <mxGeometry x="120" y="655" width="80" height="80" as="geometry" />
        </mxCell>
        <mxCell id="NZUyc3dxwzERvjgSjI8_-67" value="IMetric_9" style="rhombus;whiteSpace=wrap;html=1;dashed=1;" vertex="1" parent="1">
          <mxGeometry y="655" width="80" height="80" as="geometry" />
        </mxCell>
        <mxCell id="NZUyc3dxwzERvjgSjI8_-69" value="IMetric_5" style="rhombus;whiteSpace=wrap;html=1;dashed=1;" vertex="1" parent="1">
          <mxGeometry x="480" y="655" width="80" height="80" as="geometry" />
        </mxCell>
        <mxCell id="NZUyc3dxwzERvjgSjI8_-70" value="IMetric_4" style="rhombus;whiteSpace=wrap;html=1;dashed=1;" vertex="1" parent="1">
          <mxGeometry x="600" y="655" width="80" height="80" as="geometry" />
        </mxCell>
        <mxCell id="NZUyc3dxwzERvjgSjI8_-71" value="IMetric_3" style="rhombus;whiteSpace=wrap;html=1;dashed=1;" vertex="1" parent="1">
          <mxGeometry x="720" y="655" width="80" height="80" as="geometry" />
        </mxCell>
        <mxCell id="NZUyc3dxwzERvjgSjI8_-72" value="IMetric_2" style="rhombus;whiteSpace=wrap;html=1;dashed=1;" vertex="1" parent="1">
          <mxGeometry x="840" y="655" width="80" height="80" as="geometry" />
        </mxCell>
        <mxCell id="NZUyc3dxwzERvjgSjI8_-73" value="IMetric_1" style="rhombus;whiteSpace=wrap;html=1;dashed=1;" vertex="1" parent="1">
          <mxGeometry x="960" y="655" width="80" height="80" as="geometry" />
        </mxCell>
        <mxCell id="NZUyc3dxwzERvjgSjI8_-75" value="" style="endArrow=classic;html=1;rounded=0;dashed=1;" edge="1" parent="1" source="NZUyc3dxwzERvjgSjI8_-25" target="NZUyc3dxwzERvjgSjI8_-65">
          <mxGeometry width="50" height="50" relative="1" as="geometry">
            <mxPoint x="622" y="462" as="sourcePoint" />
            <mxPoint x="230" y="920" as="targetPoint" />
          </mxGeometry>
        </mxCell>
        <mxCell id="NZUyc3dxwzERvjgSjI8_-68" value="IMetric_6" style="rhombus;whiteSpace=wrap;html=1;dashed=1;" vertex="1" parent="1">
          <mxGeometry x="360" y="655" width="80" height="80" as="geometry" />
        </mxCell>
        <mxCell id="NZUyc3dxwzERvjgSjI8_-65" value="IMetric_7" style="rhombus;whiteSpace=wrap;html=1;dashed=1;" vertex="1" parent="1">
          <mxGeometry x="240" y="655" width="80" height="80" as="geometry" />
        </mxCell>
        <mxCell id="NZUyc3dxwzERvjgSjI8_-77" value="TScopedRegistry" style="ellipse;whiteSpace=wrap;html=1;" vertex="1" parent="1">
          <mxGeometry x="20" y="-200" width="220" height="120" as="geometry" />
        </mxCell>
        <mxCell id="NZUyc3dxwzERvjgSjI8_-78" value="TScopedRegistry" style="ellipse;whiteSpace=wrap;html=1;" vertex="1" parent="1">
          <mxGeometry x="350" y="-530" width="220" height="120" as="geometry" />
        </mxCell>
        <mxCell id="NZUyc3dxwzERvjgSjI8_-79" value="TScopedRegistry" style="ellipse;whiteSpace=wrap;html=1;" vertex="1" parent="1">
          <mxGeometry x="350" y="-200" width="220" height="120" as="geometry" />
        </mxCell>
        <mxCell id="NZUyc3dxwzERvjgSjI8_-80" value="TScopedRegistry" style="ellipse;whiteSpace=wrap;html=1;" vertex="1" parent="1">
          <mxGeometry x="680" y="-200" width="220" height="120" as="geometry" />
        </mxCell>
        <mxCell id="NZUyc3dxwzERvjgSjI8_-81" value="" style="endArrow=classic;html=1;rounded=0;" edge="1" parent="1" source="NZUyc3dxwzERvjgSjI8_-78" target="NZUyc3dxwzERvjgSjI8_-77">
          <mxGeometry width="50" height="50" relative="1" as="geometry">
            <mxPoint x="140" y="-310" as="sourcePoint" />
            <mxPoint x="190" y="-360" as="targetPoint" />
          </mxGeometry>
        </mxCell>
        <mxCell id="NZUyc3dxwzERvjgSjI8_-93" value="CommonLabels" style="edgeLabel;html=1;align=center;verticalAlign=middle;resizable=0;points=[];" vertex="1" connectable="0" parent="NZUyc3dxwzERvjgSjI8_-81">
          <mxGeometry x="0.2315" y="-1" relative="1" as="geometry">
            <mxPoint y="-1" as="offset" />
          </mxGeometry>
        </mxCell>
        <mxCell id="NZUyc3dxwzERvjgSjI8_-82" value="" style="endArrow=classic;html=1;rounded=0;" edge="1" parent="1" source="NZUyc3dxwzERvjgSjI8_-78" target="NZUyc3dxwzERvjgSjI8_-79">
          <mxGeometry width="50" height="50" relative="1" as="geometry">
            <mxPoint x="394" y="-406" as="sourcePoint" />
            <mxPoint x="206" y="-184" as="targetPoint" />
          </mxGeometry>
        </mxCell>
        <mxCell id="NZUyc3dxwzERvjgSjI8_-94" value="CommonLabels" style="edgeLabel;html=1;align=center;verticalAlign=middle;resizable=0;points=[];" vertex="1" connectable="0" parent="NZUyc3dxwzERvjgSjI8_-82">
          <mxGeometry x="0.2" y="-2" relative="1" as="geometry">
            <mxPoint as="offset" />
          </mxGeometry>
        </mxCell>
        <mxCell id="NZUyc3dxwzERvjgSjI8_-83" value="" style="endArrow=classic;html=1;rounded=0;" edge="1" parent="1" source="NZUyc3dxwzERvjgSjI8_-77" target="NZUyc3dxwzERvjgSjI8_-11">
          <mxGeometry width="50" height="50" relative="1" as="geometry">
            <mxPoint x="404" y="-396" as="sourcePoint" />
            <mxPoint x="216" y="-174" as="targetPoint" />
          </mxGeometry>
        </mxCell>
        <mxCell id="NZUyc3dxwzERvjgSjI8_-89" value="CommonLabels" style="edgeLabel;html=1;align=center;verticalAlign=middle;resizable=0;points=[];" vertex="1" connectable="0" parent="NZUyc3dxwzERvjgSjI8_-83">
          <mxGeometry x="-0.1186" relative="1" as="geometry">
            <mxPoint as="offset" />
          </mxGeometry>
        </mxCell>
        <mxCell id="NZUyc3dxwzERvjgSjI8_-84" value="" style="endArrow=classic;html=1;rounded=0;" edge="1" parent="1" source="NZUyc3dxwzERvjgSjI8_-79" target="NZUyc3dxwzERvjgSjI8_-11">
          <mxGeometry width="50" height="50" relative="1" as="geometry">
            <mxPoint x="222" y="-80" as="sourcePoint" />
            <mxPoint x="408" y="70" as="targetPoint" />
          </mxGeometry>
        </mxCell>
        <mxCell id="NZUyc3dxwzERvjgSjI8_-91" value="CommonLabels" style="edgeLabel;html=1;align=center;verticalAlign=middle;resizable=0;points=[];" vertex="1" connectable="0" parent="NZUyc3dxwzERvjgSjI8_-84">
          <mxGeometry x="-0.1692" y="1" relative="1" as="geometry">
            <mxPoint as="offset" />
          </mxGeometry>
        </mxCell>
        <mxCell id="NZUyc3dxwzERvjgSjI8_-85" value="" style="endArrow=classic;html=1;rounded=0;" edge="1" parent="1" source="NZUyc3dxwzERvjgSjI8_-80" target="NZUyc3dxwzERvjgSjI8_-11">
          <mxGeometry width="50" height="50" relative="1" as="geometry">
            <mxPoint x="470" y="-70" as="sourcePoint" />
            <mxPoint x="470" y="60" as="targetPoint" />
          </mxGeometry>
        </mxCell>
        <mxCell id="NZUyc3dxwzERvjgSjI8_-92" value="CommonLabels" style="edgeLabel;html=1;align=center;verticalAlign=middle;resizable=0;points=[];" vertex="1" connectable="0" parent="NZUyc3dxwzERvjgSjI8_-85">
          <mxGeometry x="-0.1851" y="-1" relative="1" as="geometry">
            <mxPoint as="offset" />
          </mxGeometry>
        </mxCell>
        <mxCell id="NZUyc3dxwzERvjgSjI8_-87" value="TScopedRegistry" style="ellipse;whiteSpace=wrap;html=1;" vertex="1" parent="1">
          <mxGeometry x="680" y="-530" width="220" height="120" as="geometry" />
        </mxCell>
        <mxCell id="NZUyc3dxwzERvjgSjI8_-88" value="" style="endArrow=classic;html=1;rounded=0;" edge="1" parent="1" source="NZUyc3dxwzERvjgSjI8_-87" target="NZUyc3dxwzERvjgSjI8_-80">
          <mxGeometry width="50" height="50" relative="1" as="geometry">
            <mxPoint x="787" y="-75" as="sourcePoint" />
            <mxPoint x="543" y="75" as="targetPoint" />
          </mxGeometry>
        </mxCell>
        <mxCell id="NZUyc3dxwzERvjgSjI8_-95" value="CommonLabels" style="edgeLabel;html=1;align=center;verticalAlign=middle;resizable=0;points=[];" vertex="1" connectable="0" parent="NZUyc3dxwzERvjgSjI8_-88">
          <mxGeometry x="0.219" y="-2" relative="1" as="geometry">
            <mxPoint as="offset" />
          </mxGeometry>
        </mxCell>
      </root>
    </mxGraphModel>
  </diagram>
</mxfile>
